HIERARCHY
ROOT Hips
{
    OFFSET 0.0 0.0 0.0
    CHANNELS 6 Xposition Yposition Zposition Zrotation Xrotation Yrotation
    JOINT Spine
    {
        OFFSET 0.0 5.0 0.0
        CHANNELS 3 Zrotation Xrotation Yrotation
        JOINT Chest
        {
            OFFSET 0.0 5.0 0.0
            CHANNELS 3 Zrotation Xrotation Yrotation
            JOINT Neck
            {
                OFFSET 0.0 8.0 0.0
                CHANNELS 3 Zrotation Xrotation Yrotation
                JOINT Head
                {
                    OFFSET 0.0 5.0 0.0
                    CHANNELS 3 Zrotation Xrotation Yrotation
                    End Site
                    {
                        OFFSET 0.0 3.0 0.0
                    }
                }
            }
            JOINT LeftShoulder
            {
                OFFSET -5.0 0.0 0.0
                CHANNELS 3 Zrotation Xrotation Yrotation
                JOINT LeftArm
                {
                    OFFSET 0.0 -10.0 0.0
                    CHANNELS 3 Zrotation Xrotation Yrotation
                    JOINT LeftForeArm
                    {
                        OFFSET 0.0 -10.0 0.0
                        CHANNELS 3 Zrotation Xrotation Yrotation
                        End Site
                        {
                            OFFSET 0.0 -3.0 0.0
                        }
                    }
                }
            }
        }
    }
}

MOTION
Frames: 37
Frame Time: 0.033333
960.000000 445.000000 106.366979 0.000000 0.000000 0.000000 0.000000 0.000000 0.000000 23.025492 18.990728 0.000000 180.000000 6.484810 0.000000 21.801409 -4.215176 -0.000000 158.198591 1.003013 30.000000 15.945396 -0.260106 0.000000 18.000000 -0.191128 0.000000
1691.525230 140.756605 113.712195 0.000000 0.000000 0.000000 0.000000 0.000000 0.000000 -163.376529 -8.113066 4.973798 16.623471 1.549120 4.973798 -171.853121 -3.176226 3.759997 99.744051 29.302733 29.763441 -171.126653 -4.013227 -3.759997 0.673538 0.418741 0.313953
1636.048050 128.802021 90.803240 0.000000 0.000000 0.000000 0.000000 0.000000 0.000000 157.904128 23.627188 9.635073 -22.095872 -16.442251 9.635073 -171.936471 -4.138364 7.460697 -143.675701 -7.028758 29.057495 -173.500805 -4.290070 -7.460697 0.570999 0.383314 0.626666
1578.156967 80.474526 118.668238 0.000000 0.000000 0.000000 0.000000 0.000000 0.000000 -139.519796 -1.136020 13.690942 40.480204 3.397709 13.690942 -174.507724 -3.953348 11.043737 119.111399 8.387766 27.893295 -173.607258 -4.472947 -11.043737 0.461920 0.438109 0.936907
960.418757 444.998421 113.807276 0.000000 0.000000 0.000000 0.000000 0.000000 0.000000 25.077893 7.792052 16.886559 180.000000 -7.739735 16.886559 23.861935 7.707573 14.452610 156.138065 1.418294 26.289200 17.903699 0.412787 -14.452610 18.000000 0.050385 1.243449
960.523360 444.997533 138.561924 0.000000 0.000000 0.000000 0.000000 0.000000 0.000000 25.638906 -38.896576 19.021130 180.000000 2.245114 19.021130 24.425035 5.394298 17.633558 155.574965 18.349797 24.270510 18.452907 -13.431119 -17.633558 18.000000 0.688417 1.545085
960.627905 444.996447 127.003937 0.000000 0.000000 0.000000 0.000000 0.000000 0.000000 26.219073 23.671677 19.960535 180.000000 6.177960 19.960535 25.006291 -7.416321 20.536413 154.993709 -10.388018 21.869059 19.024920 14.644289 -20.536413 18.000000 -1.418912 1.840623
1126.242828 420.359820 123.155432 0.000000 0.000000 0.000000 0.000000 0.000000 0.000000 31.410514 2.371759 19.645745 -148.589486 -6.907219 19.645745 32.280463 0.116805 23.115397 -131.603972 -3.600893 19.122720 45.585331 2.747637 -23.115397 -13.449727 0.051464 2.128896
1257.895088 650.549197 130.165646 0.000000 0.000000 0.000000 0.000000 0.000000 0.000000 25.073180 2.502178 18.096541 -154.926820 2.920116 18.096541 46.260945 -17.701478 25.329838 -154.651428 -5.970374 16.074804 27.339487 5.370026 -25.329838 -13.619892 0.082607 2.408768
960.941083 444.992008 142.024820 0.000000 0.000000 0.000000 0.000000 0.000000 0.000000 28.072001 -6.177174 15.410265 180.000000 7.390653 15.410265 26.849221 -9.932703 27.144812 153.150779 -0.065200 12.773379 20.864045 1.766731 -27.144812 18.000000 0.926256 2.679134
1163.815842 547.748709 143.242543 0.000000 0.000000 0.000000 0.000000 0.000000 0.000000 117.162728 12.507332 11.755705 -62.837272 -8.888199 11.755705 102.363764 6.197368 28.531695 -47.376450 -4.332486 9.270510 104.768601 1.780088 -28.531695 -6.003489 0.075042 2.938926
961.149372 444.988063 152.958195 0.000000 0.000000 0.000000 0.000000 0.000000 0.000000 29.395983 36.775483 7.362491 180.000000 -23.986695 7.362491 28.146217 -13.282628 29.468618 151.853783 -6.203198 5.621439 22.170006 -9.451162 -29.468618 18.000000 -0.868686 3.187120
1136.717377 590.104480 153.373661 0.000000 0.000000 0.000000 0.000000 0.000000 0.000000 115.752126 -3.344490 2.506665 -64.247874 8.321886 2.506665 73.638146 -7.245351 29.940802 -21.842452 2.764171 1.883716 75.369282 -0.685083 -29.940802 -6.767207 -0.074106 3.422736
1163.079758 634.077559 147.897733 0.000000 0.000000 0.000000 0.000000 0.000000 0.000000 132.174340 -11.392261 -2.506665 -47.825660 4.669092 -2.506665 94.255711 1.263944 29.940802 -149.364979 -6.372308 -1.883716 30.021641 5.780065 -29.940802 -5.096180 -0.410246 3.644843
961.460830 444.980668 140.631822 0.000000 0.000000 0.000000 0.000000 0.000000 0.000000 31.497152 -32.890647 -7.362491 180.000000 29.990200 -7.362491 30.152455 -13.105745 29.468618 149.847545 2.676459 -5.621439 24.175589 5.442636 -29.468618 18.000000 -0.187455 3.852566
1097.449951 565.089898 147.000632 0.000000 0.000000 0.000000 0.000000 0.000000 0.000000 -119.219568 -4.031414 -11.755705 60.780432 3.148162 -11.755705 -150.180642 -7.013885 28.531695 48.804955 3.691183 -9.270510 -149.874178 -6.765576 -28.531695 2.713854 0.501691 4.045085
1114.140244 528.302071 151.018404 0.000000 0.000000 0.000000 0.000000 0.000000 0.000000 -142.671523 8.872247 -15.410265 37.328477 -1.851645 -15.410265 -177.395681 1.653940 27.144812 34.687329 1.024690 -12.773379 161.894167 -0.663336 -27.144812 -0.910956 0.035283 4.221640
1116.433640 479.728639 166.452121 0.000000 0.000000 0.000000 0.000000 0.000000 0.000000 -102.267481 3.211565 -18.096541 77.732519 -2.520165 -18.096541 -163.695626 -1.840218 25.329838 38.575767 -1.918128 -16.074804 -176.001122 -2.306526 -25.329838 0.706594 0.248255 4.381533
1135.931282 466.493965 147.577296 0.000000 0.000000 0.000000 0.000000 0.000000 0.000000 -112.868406 -8.431597 -19.645745 67.131594 15.089854 -19.645745 -159.517862 1.410344 23.115397 36.204678 -0.606896 -19.122720 -154.426613 -5.429182 -23.115397 2.428729 0.567609 4.524135
1141.618767 467.420679 137.867368 0.000000 0.000000 0.000000 0.000000 0.000000 0.000000 -123.086385 -0.287210 -19.960535 56.913615 1.071014 -19.960535 -154.885724 -1.174000 20.536413 36.481623 -0.976487 -21.869059 -153.965441 -5.815402 -20.536413 2.446728 0.536765 4.648882
1150.647926 469.370956 146.725428 0.000000 0.000000 0.000000 0.000000 0.000000 0.000000 -43.953779 -19.514718 -19.021130 136.046221 15.942287 -19.021130 -154.327268 -7.534730 17.633558 60.745168 -1.300895 -24.270510 -153.350642 -6.626969 -17.633558 2.386216 0.601544 4.755283
1151.529922 496.420240 152.518847 0.000000 0.000000 0.000000 0.000000 0.000000 0.000000 -116.362129 -8.742672 -16.886559 63.637871 3.574313 -16.886559 -149.081043 0.641111 14.452610 35.941860 4.134500 -26.289200 -156.847177 -0.853375 -14.452610 2.056513 0.052617 4.842916
1148.402367 515.713574 136.740413 0.000000 0.000000 0.000000 0.000000 0.000000 0.000000 -118.252650 16.860075 -13.690942 61.747350 -3.957596 -13.690942 -138.082896 0.826254 11.043737 -156.312677 -6.955610 -27.893295 21.649626 9.431736 -11.043737 2.962417 0.118384 4.911436
1175.363617 533.368646 117.287936 0.000000 0.000000 0.000000 0.000000 0.000000 0.000000 -95.476638 0.991684 -9.635073 84.523362 -3.514186 -9.635073 -113.907461 1.978317 7.460697 -155.995907 -6.550956 -29.057495 12.512064 9.105991 -7.460697 -16.748794 -0.910599 4.960574
1199.533310 485.991104 147.907483 0.000000 0.000000 0.000000 0.000000 0.000000 0.000000 -100.003195 9.278760 -4.973798 79.996805 -6.494437 -4.973798 -86.083188 1.482836 3.759997 38.843754 -2.270934 -29.763441 -106.539452 -0.132185 -3.759997 6.197806 0.018524 4.990134
962.588190 444.938442 125.689152 0.000000 0.000000 0.000000 0.000000 0.000000 0.000000 39.579754 -0.413426 -0.000000 180.000000 -0.508450 -0.000000 36.680773 -0.622502 0.000000 143.319227 14.077004 -30.000000 29.388385 -9.661311 -0.000000 18.000000 0.749272 5.000000
1142.094727 445.716287 113.178753 0.000000 0.000000 0.000000 0.000000 0.000000 0.000000 -140.228454 -0.083135 4.973798 39.771546 52.101518 4.973798 -156.118008 -7.161143 -3.759997 3.479189 6.736407 -29.763441 -158.005660 -5.799641 3.759997 2.150019 0.558262 4.990134
1164.005928 424.847746 123.378680 0.000000 0.000000 0.000000 0.000000 0.000000 0.000000 -84.241076 44.758803 9.635073 95.758924 -24.303867 9.635073 -156.181584 -5.117290 -7.460697 166.928360 -4.794791 -29.057495 -154.947270 -5.629187 7.460697 2.644196 0.651469 4.960574
1124.208755 418.286655 103.533982 0.000000 0.000000 0.000000 0.000000 0.000000 0.000000 -117.427077 4.408272 13.690942 62.572923 -6.839298 13.690942 -155.943063 -6.110764 -11.043737 14.023837 -0.749532 -27.893295 -157.382674 -6.117116 11.043737 2.188130 0.514679 4.911436
962.990408 444.917226 95.884015 0.000000 0.000000 0.000000 0.000000 0.000000 0.000000 42.110883 -2.356664 16.886559 180.000000 28.500097 16.886559 37.946959 -21.453344 -14.452610 142.053041 1.235110 -26.289200 29.293612 -14.328373 14.452610 18.000000 2.249817 4.842916
963.090170 444.911436 109.452037 0.000000 0.000000 0.000000 0.000000 0.000000 0.000000 42.659200 -15.138219 19.021130 180.000000 20.435748 19.021130 38.119107 -10.289902 -17.633558 141.880893 -11.303231 -24.270510 29.068887 12.284640 17.633558 18.000000 -0.085960 4.755283
1186.646461 396.272757 99.013791 0.000000 0.000000 0.000000 0.000000 0.000000 0.000000 -72.847419 14.503199 19.960535 107.152581 -21.765186 19.960535 -156.703603 -4.445823 -20.536413 178.447294 -6.813262 -21.869059 -157.212393 -5.157896 20.536413 1.964058 0.493636 4.648882
1313.051605 426.636125 112.043768 0.000000 0.000000 0.000000 0.000000 0.000000 0.000000 90.994869 -1.104492 19.645745 -89.005131 10.815802 19.645745 -160.515303 -4.604945 -23.115397 -153.248861 -1.655519 -19.122720 -159.640525 -4.576157 23.115397 0.000000 0.000000 0.000000
1347.999344 420.772226 108.139076 0.000000 0.000000 0.000000 0.000000 0.000000 0.000000 90.154351 -0.952852 18.096541 -89.845649 5.349401 18.096541 -162.053401 -4.555259 -25.329838 -136.198880 -2.086623 -16.074804 -160.991694 -4.221219 25.329838 0.000000 0.000000 0.000000
1344.315948 421.031681 92.926269 0.000000 0.000000 0.000000 0.000000 0.000000 0.000000 69.757587 -4.156775 15.410265 -110.242413 7.520847 15.410265 25.616746 -5.187875 -27.144812 -157.821005 -3.169897 -12.773379 17.214985 2.898170 27.144812 -16.704706 0.153721 4.221640
1350.307617 440.309436 101.075493 0.000000 0.000000 0.000000 0.000000 0.000000 0.000000 71.124018 5.754923 11.755705 -108.875982 -6.258444 11.755705 42.739987 -1.070367 -28.531695 -142.315466 0.058601 -9.270510 16.600926 0.797880 28.531695 -16.660102 -0.273556 4.045085
1357.685051 430.688889 58.490703 0.000000 0.000000 0.000000 0.000000 0.000000 0.000000 77.656077 -2.738993 7.362491 -102.343923 6.269151 7.362491 39.407151 0.694424 -29.468618 -136.343173 -1.030775 -5.621439 22.144452 0.540222 29.468618 -16.305135 0.096013 3.852566
